<?xml version="1.0" encoding="UTF-8"?>
<!DOCTYPE svg PUBLIC "-//W3C//DTD SVG 1.1//EN" "http://www.w3.org/Graphics/SVG/1.1/DTD/svg11.dtd">
<svg xmlns="http://www.w3.org/2000/svg" version="1.1" width="500px" height="500px" style="shape-rendering:geometricPrecision; text-rendering:geometricPrecision; image-rendering:optimizeQuality; fill-rule:evenodd; clip-rule:evenodd" xmlns:xlink="http://www.w3.org/1999/xlink">
<g><path style="opacity:1" fill="#fedd59" d="M -0.5,-0.5 C 166.167,-0.5 332.833,-0.5 499.5,-0.5C 499.5,166.167 499.5,332.833 499.5,499.5C 332.833,499.5 166.167,499.5 -0.5,499.5C -0.5,332.833 -0.5,166.167 -0.5,-0.5 Z"/></g>
<g><path style="opacity:1" fill="#fae079" d="M 241.5,132.5 C 233.68,131.335 226.013,131.335 218.5,132.5C 216.833,132.5 215.167,132.5 213.5,132.5C 213.918,131.778 214.584,131.278 215.5,131C 223.5,130.333 231.5,130.333 239.5,131C 240.416,131.278 241.082,131.778 241.5,132.5 Z"/></g>
<g><path style="opacity:1" fill="#f7bc2d" d="M 212.5,132.5 C 212.833,132.5 213.167,132.5 213.5,132.5C 215.167,132.5 216.833,132.5 218.5,132.5C 232.747,131.534 246.08,134.2 258.5,140.5C 259.038,142.117 259.371,143.784 259.5,145.5C 249.47,145.388 239.47,145.888 229.5,147C 228.402,147.77 228.402,148.603 229.5,149.5C 224.355,150.903 220.021,153.57 216.5,157.5C 213.911,158.419 211.911,160.086 210.5,162.5C 192.55,164.612 180.716,174.278 175,191.5C 174.501,196.823 174.334,202.156 174.5,207.5C 167.124,187.745 169.957,169.412 183,152.5C 187.199,147.966 191.699,143.799 196.5,140C 202.133,137.965 207.467,135.465 212.5,132.5 Z"/></g>
<g><path style="opacity:1" fill="#f4d365" d="M 218.5,132.5 C 226.013,131.335 233.68,131.335 241.5,132.5C 254.266,134.256 264.599,140.256 272.5,150.5C 272.043,151.298 271.376,151.631 270.5,151.5C 270.179,149.952 269.179,149.285 267.5,149.5C 264.99,149.073 262.657,148.407 260.5,147.5C 262.288,147.785 263.955,147.452 265.5,146.5C 262.909,144.719 260.575,142.719 258.5,140.5C 246.08,134.2 232.747,131.534 218.5,132.5 Z"/></g>
<g><path style="opacity:1" fill="#fadc70" d="M 212.5,132.5 C 207.467,135.465 202.133,137.965 196.5,140C 191.699,143.799 187.199,147.966 183,152.5C 169.957,169.412 167.124,187.745 174.5,207.5C 175.167,210.167 175.833,212.833 176.5,215.5C 175.5,215.5 174.5,215.5 173.5,215.5C 172.44,211.487 171.274,207.487 170,203.5C 164.565,173.981 174.398,151.481 199.5,136C 203.84,134.718 208.173,133.551 212.5,132.5 Z"/></g>
<g><path style="opacity:1" fill="#ddb431" d="M 258.5,140.5 C 260.575,142.719 262.909,144.719 265.5,146.5C 263.955,147.452 262.288,147.785 260.5,147.5C 250.011,145.866 239.678,146.533 229.5,149.5C 228.402,148.603 228.402,147.77 229.5,147C 239.47,145.888 249.47,145.388 259.5,145.5C 259.371,143.784 259.038,142.117 258.5,140.5 Z"/></g>
<g><path style="opacity:1" fill="#375316" d="M 263.5,150.5 C 260.615,150.194 257.948,150.527 255.5,151.5C 250.866,153.262 246.532,155.762 242.5,159C 239.577,161.416 237.243,164.25 235.5,167.5C 227.379,164.676 219.046,163.009 210.5,162.5C 211.911,160.086 213.911,158.419 216.5,157.5C 220.641,156.357 224.308,154.357 227.5,151.5C 229.727,152.585 231.727,152.085 233.5,150C 237.028,149.911 240.362,149.244 243.5,148C 245.333,147.833 247.167,147.667 249,147.5C 253.964,148.511 258.798,149.511 263.5,150.5 Z"/></g>
<g><path style="opacity:1" fill="#596013" d="M 260.5,147.5 C 262.657,148.407 264.99,149.073 267.5,149.5C 266.432,150.434 265.099,150.768 263.5,150.5C 258.798,149.511 253.964,148.511 249,147.5C 247.167,147.667 245.333,147.833 243.5,148C 240.362,149.244 237.028,149.911 233.5,150C 231.727,152.085 229.727,152.585 227.5,151.5C 224.308,154.357 220.641,156.357 216.5,157.5C 220.021,153.57 224.355,150.903 229.5,149.5C 239.678,146.533 250.011,145.866 260.5,147.5 Z"/></g>
<g><path style="opacity:1" fill="#b5a856" d="M 267.5,149.5 C 269.179,149.285 270.179,149.952 270.5,151.5C 265.5,151.5 260.5,151.5 255.5,151.5C 257.948,150.527 260.615,150.194 263.5,150.5C 265.099,150.768 266.432,150.434 267.5,149.5 Z"/></g>
<g><path style="opacity:1" fill="#380105" d="M 210.5,162.5 C 219.046,163.009 227.379,164.676 235.5,167.5C 235.833,168.167 236.167,168.833 236.5,169.5C 235.624,169.369 234.957,169.702 234.5,170.5C 230.743,176.921 229.743,183.588 231.5,190.5C 232.09,199.931 236.09,207.597 243.5,213.5C 245.484,215.46 246.317,217.793 246,220.5C 239.73,230.431 230.897,236.931 219.5,240C 213.496,240.3 207.496,240.134 201.5,239.5C 200.833,239.5 200.167,239.5 199.5,239.5C 199.027,238.094 198.027,237.427 196.5,237.5C 196.027,236.094 195.027,235.427 193.5,235.5C 189.038,232.281 185.038,228.614 181.5,224.5C 180.302,221.207 178.635,218.207 176.5,215.5C 175.833,212.833 175.167,210.167 174.5,207.5C 174.334,202.156 174.501,196.823 175,191.5C 180.716,174.278 192.55,164.612 210.5,162.5 Z"/></g>
<g><path style="opacity:1" fill="#af1810" d="M 277.5,202.5 C 278.5,202.833 279.167,203.5 279.5,204.5C 279.833,205.167 280.167,205.833 280.5,206.5C 280.5,206.833 280.5,207.167 280.5,207.5C 272.517,213.486 264.851,219.819 257.5,226.5C 252.813,222.145 248.146,217.812 243.5,213.5C 236.09,207.597 232.09,199.931 231.5,190.5C 231.335,187.15 231.502,183.817 232,180.5C 234.568,179.62 235.068,178.12 233.5,176C 233.816,173.501 235.149,172.001 237.5,171.5C 242.554,172.595 246.387,175.261 249,179.5C 249.667,178.167 250.333,178.167 251,179.5C 251.526,181.55 252.359,183.383 253.5,185C 255.813,185.662 258.146,186.162 260.5,186.5C 260.5,188.5 260.5,190.5 260.5,192.5C 262.484,192.617 264.15,191.95 265.5,190.5C 266.719,191.263 267.719,192.263 268.5,193.5C 268.841,195.49 269.174,197.49 269.5,199.5C 269.023,200.478 268.357,201.311 267.5,202C 269.169,202.122 270.835,201.788 272.5,201C 271.549,200.282 271.383,199.449 272,198.5C 273.712,200.052 275.545,201.385 277.5,202.5 Z"/></g>
<g><path style="opacity:1" fill="#eec16c" d="M 258.5,181.5 C 262.086,182.75 264.752,185.084 266.5,188.5C 263.236,186.906 260.569,184.573 258.5,181.5 Z"/></g>
<g><path style="opacity:1" fill="#a92418" d="M 236.5,169.5 C 244.474,172.484 251.807,176.484 258.5,181.5C 260.569,184.573 263.236,186.906 266.5,188.5C 270.953,192.612 274.62,197.278 277.5,202.5C 275.545,201.385 273.712,200.052 272,198.5C 271.383,199.449 271.549,200.282 272.5,201C 270.835,201.788 269.169,202.122 267.5,202C 268.357,201.311 269.023,200.478 269.5,199.5C 269.174,197.49 268.841,195.49 268.5,193.5C 267.719,192.263 266.719,191.263 265.5,190.5C 264.15,191.95 262.484,192.617 260.5,192.5C 260.5,190.5 260.5,188.5 260.5,186.5C 258.146,186.162 255.813,185.662 253.5,185C 252.359,183.383 251.526,181.55 251,179.5C 250.333,178.167 249.667,178.167 249,179.5C 246.387,175.261 242.554,172.595 237.5,171.5C 235.149,172.001 233.816,173.501 233.5,176C 235.068,178.12 234.568,179.62 232,180.5C 231.502,183.817 231.335,187.15 231.5,190.5C 229.743,183.588 230.743,176.921 234.5,170.5C 234.957,169.702 235.624,169.369 236.5,169.5 Z"/></g>
<g><path style="opacity:1" fill="#fadb6c" d="M 288.5,220.5 C 287.13,218.75 286.13,216.75 285.5,214.5C 294.175,205.659 303.342,197.326 313,189.5C 313.814,187.098 313.647,184.765 312.5,182.5C 303.09,189.069 294.09,196.235 285.5,204C 284.1,205.438 282.433,206.271 280.5,206.5C 280.167,205.833 279.833,205.167 279.5,204.5C 290.694,196.655 301.361,187.988 311.5,178.5C 313.353,177.24 315.186,177.24 317,178.5C 318.102,183.184 317.436,187.517 315,191.5C 306.646,198.689 298.146,205.689 289.5,212.5C 288.52,215.086 288.187,217.753 288.5,220.5 Z"/></g>
<g><path style="opacity:1" fill="#f6bf30" d="M 285.5,214.5 C 284.167,215.5 282.833,216.5 281.5,217.5C 279.419,216.273 277.419,214.773 275.5,213C 278.079,211.924 279.746,210.091 280.5,207.5C 280.5,207.167 280.5,206.833 280.5,206.5C 282.433,206.271 284.1,205.438 285.5,204C 294.09,196.235 303.09,189.069 312.5,182.5C 313.647,184.765 313.814,187.098 313,189.5C 303.342,197.326 294.175,205.659 285.5,214.5 Z"/></g>
<g><path style="opacity:1" fill="#e6c668" d="M 176.5,215.5 C 178.635,218.207 180.302,221.207 181.5,224.5C 180.5,224.5 179.5,224.5 178.5,224.5C 178.072,221.436 177.406,218.436 176.5,215.5 Z"/></g>
<g><path style="opacity:1" fill="#af1911" d="M 285.5,214.5 C 286.13,216.75 287.13,218.75 288.5,220.5C 289.048,222.626 289.715,224.626 290.5,226.5C 291.261,231.437 292.595,236.103 294.5,240.5C 294.5,241.5 294.5,242.5 294.5,243.5C 294.804,252.584 294.471,261.584 293.5,270.5C 292.357,270.092 291.357,269.425 290.5,268.5C 285.112,256.29 277.612,245.624 268,236.5C 267.219,235.056 267.386,233.723 268.5,232.5C 270.909,230.098 272.909,227.431 274.5,224.5C 276.527,221.806 278.861,219.473 281.5,217.5C 282.833,216.5 284.167,215.5 285.5,214.5 Z"/></g>
<g><path style="opacity:1" fill="#f5b632" d="M 280.5,207.5 C 279.746,210.091 278.079,211.924 275.5,213C 277.419,214.773 279.419,216.273 281.5,217.5C 278.861,219.473 276.527,221.806 274.5,224.5C 269.929,226.738 265.929,229.738 262.5,233.5C 258.392,237.394 254.059,241.061 249.5,244.5C 248.965,241.762 249.965,239.928 252.5,239C 249.975,238.959 247.642,239.793 245.5,241.5C 244.749,242.376 244.249,243.376 244,244.5C 242.89,242.963 241.39,242.297 239.5,242.5C 239.5,243.5 239.5,244.5 239.5,245.5C 237.328,246.801 234.995,247.801 232.5,248.5C 232.414,247.504 232.748,246.671 233.5,246C 241.714,239.731 249.714,233.231 257.5,226.5C 264.851,219.819 272.517,213.486 280.5,207.5 Z"/></g>
<g><path style="opacity:1" fill="#dfa465" d="M 290.5,226.5 C 292.812,230.783 294.145,235.45 294.5,240.5C 292.595,236.103 291.261,231.437 290.5,226.5 Z"/></g>
<g><path style="opacity:1" fill="#5e0b09" d="M 243.5,213.5 C 248.146,217.812 252.813,222.145 257.5,226.5C 249.714,233.231 241.714,239.731 233.5,246C 232.748,246.671 232.414,247.504 232.5,248.5C 231.5,248.5 230.5,248.5 229.5,248.5C 220.543,247.176 211.876,244.843 203.5,241.5C 202.833,240.833 202.167,240.167 201.5,239.5C 207.496,240.134 213.496,240.3 219.5,240C 230.897,236.931 239.73,230.431 246,220.5C 246.317,217.793 245.484,215.46 243.5,213.5 Z"/></g>
<g><path style="opacity:1" fill="#7c552d" d="M 193.5,235.5 C 195.027,235.427 196.027,236.094 196.5,237.5C 194.973,237.573 193.973,236.906 193.5,235.5 Z"/></g>
<g><path style="opacity:1" fill="#855f34" d="M 196.5,237.5 C 198.027,237.427 199.027,238.094 199.5,239.5C 197.973,239.573 196.973,238.906 196.5,237.5 Z"/></g>
<g><path style="opacity:1" fill="#88160c" d="M 262.5,233.5 C 263.75,233.577 264.583,234.244 265,235.5C 265.333,235.167 265.667,234.833 266,234.5C 266.304,236.441 267.137,238.107 268.5,239.5C 268.291,240.086 267.957,240.586 267.5,241C 268.665,242.084 269.998,242.917 271.5,243.5C 272.429,244.689 272.762,246.022 272.5,247.5C 273.873,247.343 275.207,247.51 276.5,248C 277.723,250.944 279.556,253.444 282,255.5C 283.145,259.794 285.312,263.461 288.5,266.5C 288.291,267.086 287.957,267.586 287.5,268C 288.863,269.945 289.697,272.112 290,274.5C 290.708,275.381 291.542,276.047 292.5,276.5C 292.5,276.833 292.5,277.167 292.5,277.5C 281.105,269.469 269.105,262.469 256.5,256.5C 251.918,254.846 247.252,253.179 242.5,251.5C 244.424,248.909 246.758,246.575 249.5,244.5C 254.059,241.061 258.392,237.394 262.5,233.5 Z"/></g>
<g><path style="opacity:1" fill="#a68246" d="M 199.5,239.5 C 200.167,239.5 200.833,239.5 201.5,239.5C 202.167,240.167 202.833,240.833 203.5,241.5C 201.62,241.771 200.287,241.104 199.5,239.5 Z"/></g>
<g><path style="opacity:1" fill="#fee780" d="M 242.5,251.5 C 247.252,253.179 251.918,254.846 256.5,256.5C 256.5,264.833 256.5,273.167 256.5,281.5C 255.245,287.343 254.078,293.343 253,299.5C 250.132,306.557 247.299,313.557 244.5,320.5C 242.836,322.408 241.169,324.408 239.5,326.5C 239.813,323.753 239.48,321.086 238.5,318.5C 225.657,307.574 216.99,294.241 212.5,278.5C 212.167,277.833 211.833,277.167 211.5,276.5C 219.762,269.351 228.095,262.184 236.5,255C 238.405,253.579 240.405,252.412 242.5,251.5 Z"/></g>
<g><path style="opacity:1" fill="#af4630" d="M 294.5,243.5 C 295.732,255.015 295.732,266.682 294.5,278.5C 294.167,278.5 293.833,278.5 293.5,278.5C 292.833,278.5 292.5,278.167 292.5,277.5C 292.5,277.167 292.5,276.833 292.5,276.5C 292.517,274.435 292.85,272.435 293.5,270.5C 294.471,261.584 294.804,252.584 294.5,243.5 Z"/></g>
<g><path style="opacity:1" fill="#9c180c" d="M 274.5,224.5 C 272.909,227.431 270.909,230.098 268.5,232.5C 267.386,233.723 267.219,235.056 268,236.5C 277.612,245.624 285.112,256.29 290.5,268.5C 291.357,269.425 292.357,270.092 293.5,270.5C 292.85,272.435 292.517,274.435 292.5,276.5C 291.542,276.047 290.708,275.381 290,274.5C 289.697,272.112 288.863,269.945 287.5,268C 287.957,267.586 288.291,267.086 288.5,266.5C 285.312,263.461 283.145,259.794 282,255.5C 279.556,253.444 277.723,250.944 276.5,248C 275.207,247.51 273.873,247.343 272.5,247.5C 272.762,246.022 272.429,244.689 271.5,243.5C 269.998,242.917 268.665,242.084 267.5,241C 267.957,240.586 268.291,240.086 268.5,239.5C 267.137,238.107 266.304,236.441 266,234.5C 265.667,234.833 265.333,235.167 265,235.5C 264.583,234.244 263.75,233.577 262.5,233.5C 265.929,229.738 269.929,226.738 274.5,224.5 Z"/></g>
<g><path style="opacity:1" fill="#fdb21d" d="M 256.5,256.5 C 269.105,262.469 281.105,269.469 292.5,277.5C 292.5,278.167 292.833,278.5 293.5,278.5C 291.845,285.456 290.345,292.456 289,299.5C 284.831,305.166 281.165,311.166 278,317.5C 272.819,322.268 267.986,327.268 263.5,332.5C 249.908,343.902 234.408,351.569 217,355.5C 216.167,355.167 215.333,354.833 214.5,354.5C 224.96,347.042 233.293,337.708 239.5,326.5C 241.169,324.408 242.836,322.408 244.5,320.5C 252.855,309.086 256.855,296.086 256.5,281.5C 256.5,273.167 256.5,264.833 256.5,256.5 Z"/></g>
<g><path style="opacity:1" fill="#f9d86f" d="M 288.5,220.5 C 289.932,222.425 291.432,224.425 293,226.5C 294.44,231.476 295.773,236.476 297,241.5C 297.167,256.511 297.667,271.511 298.5,286.5C 299.744,292.904 301.244,299.237 303,305.5C 303.132,313.785 303.966,321.951 305.5,330C 305.406,334.068 304.74,337.901 303.5,341.5C 303.975,338.918 303.308,336.918 301.5,335.5C 302.621,329.582 302.788,323.582 302,317.5C 300.054,304.276 297.554,291.276 294.5,278.5C 295.732,266.682 295.732,255.015 294.5,243.5C 294.5,242.5 294.5,241.5 294.5,240.5C 294.145,235.45 292.812,230.783 290.5,226.5C 289.715,224.626 289.048,222.626 288.5,220.5 Z"/></g>
<g><path style="opacity:1" fill="#f6be31" d="M 249.5,244.5 C 246.758,246.575 244.424,248.909 242.5,251.5C 240.405,252.412 238.405,253.579 236.5,255C 228.095,262.184 219.762,269.351 211.5,276.5C 208.731,277.768 206.397,279.601 204.5,282C 203.552,282.483 202.552,282.649 201.5,282.5C 196.599,288.394 190.932,293.727 184.5,298.5C 183.914,298.291 183.414,297.957 183,297.5C 182.182,294.773 182.348,292.106 183.5,289.5C 199.551,276.438 214.884,262.772 229.5,248.5C 230.5,248.5 231.5,248.5 232.5,248.5C 234.995,247.801 237.328,246.801 239.5,245.5C 239.5,244.5 239.5,243.5 239.5,242.5C 241.39,242.297 242.89,242.963 244,244.5C 244.249,243.376 244.749,242.376 245.5,241.5C 247.642,239.793 249.975,238.959 252.5,239C 249.965,239.928 248.965,241.762 249.5,244.5 Z"/></g>
<g><path style="opacity:1" fill="#fade74" d="M 203.5,241.5 C 211.876,244.843 220.543,247.176 229.5,248.5C 214.884,262.772 199.551,276.438 183.5,289.5C 182.348,292.106 182.182,294.773 183,297.5C 183.414,297.957 183.914,298.291 184.5,298.5C 190.932,293.727 196.599,288.394 201.5,282.5C 202.552,282.649 203.552,282.483 204.5,282C 206.397,279.601 208.731,277.768 211.5,276.5C 211.833,277.167 212.167,277.833 212.5,278.5C 203.061,285.085 194.061,292.418 185.5,300.5C 183.958,301.747 182.458,301.747 181,300.5C 179.976,295.902 180.476,291.568 182.5,287.5C 191.678,279.819 200.678,271.985 209.5,264C 210.142,258.015 211.142,252.182 212.5,246.5C 208.403,246.622 205.403,244.956 203.5,241.5 Z"/></g>
<g><path style="opacity:1" fill="#f6bb2e" d="M 256.5,281.5 C 256.855,296.086 252.855,309.086 244.5,320.5C 247.299,313.557 250.132,306.557 253,299.5C 254.078,293.343 255.245,287.343 256.5,281.5 Z"/></g>
<g><path style="opacity:1" fill="#fdc94f" d="M 293.5,278.5 C 293.833,278.5 294.167,278.5 294.5,278.5C 297.554,291.276 300.054,304.276 302,317.5C 302.788,323.582 302.621,329.582 301.5,335.5C 291.494,335.666 281.494,335.5 271.5,335C 270.255,334.209 268.922,333.709 267.5,333.5C 266.432,332.566 265.099,332.232 263.5,332.5C 267.986,327.268 272.819,322.268 278,317.5C 281.165,311.166 284.831,305.166 289,299.5C 290.345,292.456 291.845,285.456 293.5,278.5 Z"/></g>
<g><path style="opacity:1" fill="#fde781" d="M 267.5,333.5 C 268.922,333.709 270.255,334.209 271.5,335C 281.494,335.5 291.494,335.666 301.5,335.5C 303.308,336.918 303.975,338.918 303.5,341.5C 303.847,349.659 303.014,357.659 301,365.5C 296.827,378.848 291.661,391.848 285.5,404.5C 284.5,404.5 283.5,404.5 282.5,404.5C 282.5,393.5 282.5,382.5 282.5,371.5C 281.5,371.5 280.5,371.5 279.5,371.5C 278.485,359.785 273.818,349.785 265.5,341.5C 265.117,339.592 264.117,338.092 262.5,337C 265.167,336.333 265.167,335.667 262.5,335C 263.905,333.731 265.571,333.231 267.5,333.5 Z"/></g>
<g><path style="opacity:1" fill="#fbda68" d="M 239.5,326.5 C 233.293,337.708 224.96,347.042 214.5,354.5C 215.333,354.833 216.167,355.167 217,355.5C 234.408,351.569 249.908,343.902 263.5,332.5C 265.099,332.232 266.432,332.566 267.5,333.5C 265.571,333.231 263.905,333.731 262.5,335C 265.167,335.667 265.167,336.333 262.5,337C 264.117,338.092 265.117,339.592 265.5,341.5C 263.952,341.179 263.285,340.179 263.5,338.5C 261.801,338.34 260.134,338.506 258.5,339C 251.401,343.773 244.068,348.106 236.5,352C 227.962,354.468 219.296,356.301 210.5,357.5C 210.351,356.448 210.517,355.448 211,354.5C 221.251,347.038 229.918,338.038 237,327.5C 237.671,326.748 238.504,326.414 239.5,326.5 Z"/></g>
</svg>
