<?xml version="1.0" encoding="UTF-8"?>
<!DOCTYPE svg PUBLIC "-//W3C//DTD SVG 1.1//EN" "http://www.w3.org/Graphics/SVG/1.1/DTD/svg11.dtd">
<svg xmlns="http://www.w3.org/2000/svg" version="1.1" width="500px" height="500px" style="shape-rendering:geometricPrecision; text-rendering:geometricPrecision; image-rendering:optimizeQuality; fill-rule:evenodd; clip-rule:evenodd" xmlns:xlink="http://www.w3.org/1999/xlink">
<g><path style="opacity:0.964" fill="#f5bc32" d="M 212.5,131.5 C 229.044,130.387 244.711,133.553 259.5,141C 261.167,142.667 262.833,144.333 264.5,146C 263.263,146.232 262.263,146.732 261.5,147.5C 249.311,145.602 237.311,146.436 225.5,150C 222.064,151.274 219.397,153.441 217.5,156.5C 213.951,157.723 210.951,159.723 208.5,162.5C 191.85,164.646 180.683,173.646 175,189.5C 174.333,196.833 174.333,204.167 175,211.5C 177.062,215.395 178.895,219.395 180.5,223.5C 174.461,216.408 171.294,208.074 171,198.5C 166.735,171.872 175.902,151.372 198.5,137C 203.05,134.872 207.717,133.039 212.5,131.5 Z"/></g>
<g><path style="opacity:0.349" fill="#f0d261" d="M 243.5,171.5 C 240.62,171.06 237.954,170.06 235.5,168.5C 235.5,168.167 235.5,167.833 235.5,167.5C 240.156,158.491 247.49,152.824 257.5,150.5C 260.079,149.772 262.746,149.272 265.5,149C 264.099,148.59 262.766,148.09 261.5,147.5C 262.263,146.732 263.263,146.232 264.5,146C 262.833,144.333 261.167,142.667 259.5,141C 244.711,133.553 229.044,130.387 212.5,131.5C 229.487,127.975 245.487,130.808 260.5,140C 263.842,143.009 266.842,146.343 269.5,150C 256.533,149.981 245.866,155.148 237.5,165.5C 238.674,168.403 240.674,170.403 243.5,171.5 Z"/></g>
<g><path style="opacity:0.979" fill="#3b5416" d="M 257.5,150.5 C 247.49,152.824 240.156,158.491 235.5,167.5C 226.866,164.448 217.866,162.781 208.5,162.5C 210.951,159.723 213.951,157.723 217.5,156.5C 221.027,156.047 224.027,154.547 226.5,152C 234.677,149.47 243.01,148.137 251.5,148C 253.974,148.037 255.974,148.87 257.5,150.5 Z"/></g>
<g><path style="opacity:1" fill="#6b6e1b" d="M 261.5,147.5 C 262.766,148.09 264.099,148.59 265.5,149C 262.746,149.272 260.079,149.772 257.5,150.5C 255.974,148.87 253.974,148.037 251.5,148C 243.01,148.137 234.677,149.47 226.5,152C 224.027,154.547 221.027,156.047 217.5,156.5C 219.397,153.441 222.064,151.274 225.5,150C 237.311,146.436 249.311,145.602 261.5,147.5 Z"/></g>
<g><path style="opacity:0.999" fill="#380105" d="M 208.5,162.5 C 217.866,162.781 226.866,164.448 235.5,167.5C 235.5,167.833 235.5,168.167 235.5,168.5C 229.731,175.939 228.231,184.273 231,193.5C 232.895,202.218 237.395,209.218 244.5,214.5C 245.014,216.512 245.18,218.512 245,220.5C 234.348,235.774 219.848,241.774 201.5,238.5C 198.167,237.167 194.833,235.833 191.5,234.5C 190.089,232.086 188.089,230.419 185.5,229.5C 185.167,228.5 184.5,227.833 183.5,227.5C 183.5,226.167 182.833,225.5 181.5,225.5C 180.662,225.158 180.328,224.492 180.5,223.5C 178.895,219.395 177.062,215.395 175,211.5C 174.333,204.167 174.333,196.833 175,189.5C 180.683,173.646 191.85,164.646 208.5,162.5 Z"/></g>
<g><path style="opacity:1" fill="#af1d11" d="M 235.5,168.5 C 237.954,170.06 240.62,171.06 243.5,171.5C 245.153,171.66 246.486,172.326 247.5,173.5C 247.973,174.906 248.973,175.573 250.5,175.5C 249.428,181.643 252.095,185.309 258.5,186.5C 259.466,188.396 259.799,190.396 259.5,192.5C 260.552,192.649 261.552,192.483 262.5,192C 260.893,190.951 260.227,189.451 260.5,187.5C 261.833,187.5 263.167,187.5 264.5,187.5C 266.209,190.59 267.542,193.923 268.5,197.5C 268.471,199.029 267.804,200.196 266.5,201C 268.134,201.494 269.801,201.66 271.5,201.5C 271.351,200.448 271.517,199.448 272,198.5C 273.129,200.141 274.629,201.141 276.5,201.5C 280.327,204.265 280.327,206.932 276.5,209.5C 269.833,214.833 263.167,220.167 256.5,225.5C 252.5,221.833 248.5,218.167 244.5,214.5C 237.395,209.218 232.895,202.218 231,193.5C 228.231,184.273 229.731,175.939 235.5,168.5 Z"/></g>
<g><path style="opacity:0.118" fill="#f8cf58" d="M 247.5,173.5 C 249.027,173.427 250.027,174.094 250.5,175.5C 248.973,175.573 247.973,174.906 247.5,173.5 Z"/></g>
<g><path style="opacity:0.965" fill="#b74221" d="M 250.5,175.5 C 254.704,177.033 258.037,179.7 260.5,183.5C 261.262,185.262 262.596,186.262 264.5,186.5C 267.543,188.176 269.877,190.509 271.5,193.5C 273.14,196.149 274.807,198.816 276.5,201.5C 274.629,201.141 273.129,200.141 272,198.5C 271.517,199.448 271.351,200.448 271.5,201.5C 269.801,201.66 268.134,201.494 266.5,201C 267.804,200.196 268.471,199.029 268.5,197.5C 267.542,193.923 266.209,190.59 264.5,187.5C 263.167,187.5 261.833,187.5 260.5,187.5C 260.227,189.451 260.893,190.951 262.5,192C 261.552,192.483 260.552,192.649 259.5,192.5C 259.799,190.396 259.466,188.396 258.5,186.5C 252.095,185.309 249.428,181.643 250.5,175.5 Z"/></g>
<g><path style="opacity:0.031" fill="#f0c36d" d="M 260.5,183.5 C 262.404,183.738 263.738,184.738 264.5,186.5C 262.596,186.262 261.262,185.262 260.5,183.5 Z"/></g>
<g><path style="opacity:0.137" fill="#fdde6c" d="M 311.5,182.5 C 305.815,186.525 300.149,190.525 294.5,194.5C 299.21,189.463 304.543,185.129 310.5,181.5C 311.107,181.624 311.44,181.957 311.5,182.5 Z"/></g>
<g><path style="opacity:0.908" fill="#f7c33a" d="M 311.5,182.5 C 313.722,182.559 314.722,183.725 314.5,186C 314.613,187.699 313.947,188.866 312.5,189.5C 302.572,196.759 293.572,205.092 285.5,214.5C 283.938,214.733 282.605,215.4 281.5,216.5C 276.962,215.989 275.296,213.656 276.5,209.5C 280.327,206.932 280.327,204.265 276.5,201.5C 274.807,198.816 273.14,196.149 271.5,193.5C 274.334,195.502 276.667,198.002 278.5,201C 279.609,201.638 280.775,202.138 282,202.5C 286.057,199.599 290.224,196.932 294.5,194.5C 300.149,190.525 305.815,186.525 311.5,182.5 Z"/></g>
<g><path style="opacity:0.102" fill="#fdde6d" d="M 312.5,189.5 C 305.552,197.28 298.052,204.613 290,211.5C 288.748,214.014 288.248,216.68 288.5,219.5C 286.75,218.341 285.75,216.674 285.5,214.5C 293.572,205.092 302.572,196.759 312.5,189.5 Z"/></g>
<g><path style="opacity:1" fill="#f2b231" d="M 276.5,209.5 C 275.296,213.656 276.962,215.989 281.5,216.5C 278.5,218.833 275.833,221.5 273.5,224.5C 268.91,226.762 264.91,229.762 261.5,233.5C 257.792,237.21 253.792,240.543 249.5,243.5C 249.297,241.61 249.963,240.11 251.5,239C 247.895,238.464 244.895,239.631 242.5,242.5C 241.264,241.754 239.93,241.421 238.5,241.5C 244.797,236.538 250.797,231.205 256.5,225.5C 263.167,220.167 269.833,214.833 276.5,209.5 Z"/></g>
<g><path style="opacity:0.979" fill="#af1b11" d="M 285.5,214.5 C 285.75,216.674 286.75,218.341 288.5,219.5C 288.41,222.152 289.076,224.485 290.5,226.5C 290.5,226.833 290.5,227.167 290.5,227.5C 290.742,231.479 291.742,235.146 293.5,238.5C 293.5,238.833 293.5,239.167 293.5,239.5C 293.5,242.167 293.5,244.833 293.5,247.5C 293.666,253.509 293.499,259.509 293,265.5C 292.781,266.938 292.281,268.271 291.5,269.5C 285.422,256.927 277.589,245.594 268,235.5C 267.333,234.5 267.333,233.5 268,232.5C 270.47,230.209 272.304,227.543 273.5,224.5C 275.833,221.5 278.5,218.833 281.5,216.5C 282.605,215.4 283.938,214.733 285.5,214.5 Z"/></g>
<g><path style="opacity:0.982" fill="#61110b" d="M 244.5,214.5 C 248.5,218.167 252.5,221.833 256.5,225.5C 250.797,231.205 244.797,236.538 238.5,241.5C 235.354,244.015 232.021,246.015 228.5,247.5C 219.972,246.284 211.638,244.284 203.5,241.5C 202.833,240.5 202.167,239.5 201.5,238.5C 219.848,241.774 234.348,235.774 245,220.5C 245.18,218.512 245.014,216.512 244.5,214.5 Z"/></g>
<g><path style="opacity:0.055" fill="#fad366" d="M 288.5,219.5 C 289.924,221.515 290.59,223.848 290.5,226.5C 289.076,224.485 288.41,222.152 288.5,219.5 Z"/></g>
<g><path style="opacity:0.518" fill="#be953f" d="M 181.5,225.5 C 182.833,225.5 183.5,226.167 183.5,227.5C 182.5,227.167 181.833,226.5 181.5,225.5 Z"/></g>
<g><path style="opacity:0.016" fill="#ffee6c" d="M 183.5,227.5 C 184.5,227.833 185.167,228.5 185.5,229.5C 184.167,229.5 183.5,228.833 183.5,227.5 Z"/></g>
<g><path style="opacity:0.237" fill="#e5a95f" d="M 290.5,227.5 C 291.117,227.611 291.617,227.944 292,228.5C 292.61,231.827 293.11,235.161 293.5,238.5C 291.742,235.146 290.742,231.479 290.5,227.5 Z"/></g>
<g><path style="opacity:0.286" fill="#dfbb4c" d="M 185.5,229.5 C 188.089,230.419 190.089,232.086 191.5,234.5C 188.911,233.581 186.911,231.914 185.5,229.5 Z"/></g>
<g><path style="opacity:0.999" fill="#89180c" d="M 261.5,233.5 C 265.093,234.548 266.76,236.715 266.5,240C 267.729,241.529 269.229,242.696 271,243.5C 271.49,244.793 271.657,246.127 271.5,247.5C 272.873,247.343 274.207,247.51 275.5,248C 281.586,256.451 286.252,265.284 289.5,274.5C 278.517,267.672 267.184,261.338 255.5,255.5C 251.257,253.879 246.924,252.546 242.5,251.5C 244.146,248.19 246.48,245.523 249.5,243.5C 253.792,240.543 257.792,237.21 261.5,233.5 Z"/></g>
<g><path style="opacity:0.443" fill="#b79244" d="M 191.5,234.5 C 194.833,235.833 198.167,237.167 201.5,238.5C 202.167,239.5 202.833,240.5 203.5,241.5C 198.55,240.695 194.55,238.362 191.5,234.5 Z"/></g>
<g><path style="opacity:0.978" fill="#f6bf34" d="M 249.5,243.5 C 246.48,245.523 244.146,248.19 242.5,251.5C 240.407,252.045 238.407,252.878 236.5,254C 225.459,264.893 213.459,274.393 200.5,282.5C 195.785,287.881 190.785,292.881 185.5,297.5C 183.182,300.153 181.682,299.487 181,295.5C 180.262,293.119 180.762,291.119 182.5,289.5C 198.81,276.522 214.143,262.522 228.5,247.5C 232.021,246.015 235.354,244.015 238.5,241.5C 239.93,241.421 241.264,241.754 242.5,242.5C 244.895,239.631 247.895,238.464 251.5,239C 249.963,240.11 249.297,241.61 249.5,243.5 Z"/></g>
<g><path style="opacity:1" fill="#a52f15" d="M 273.5,224.5 C 272.304,227.543 270.47,230.209 268,232.5C 267.333,233.5 267.333,234.5 268,235.5C 277.589,245.594 285.422,256.927 291.5,269.5C 292.281,268.271 292.781,266.938 293,265.5C 293.499,259.509 293.666,253.509 293.5,247.5C 294.493,255.984 294.826,264.651 294.5,273.5C 293.833,274.833 293.167,276.167 292.5,277.5C 291.306,276.728 290.306,275.728 289.5,274.5C 286.252,265.284 281.586,256.451 275.5,248C 274.207,247.51 272.873,247.343 271.5,247.5C 271.657,246.127 271.49,244.793 271,243.5C 269.229,242.696 267.729,241.529 266.5,240C 266.76,236.715 265.093,234.548 261.5,233.5C 264.91,229.762 268.91,226.762 273.5,224.5 Z"/></g>
<g><path style="opacity:0.736" fill="#fee67e" d="M 242.5,251.5 C 246.924,252.546 251.257,253.879 255.5,255.5C 258.772,294.591 245.772,326.924 216.5,352.5C 216.709,351.078 217.209,349.745 218,348.5C 226.59,341.262 232.757,332.429 236.5,322C 236.375,320.373 235.875,318.873 235,317.5C 224.724,307.112 216.557,295.279 210.5,282C 208.365,281.365 206.365,281.699 204.5,283C 198.84,288.841 192.507,293.674 185.5,297.5C 190.785,292.881 195.785,287.881 200.5,282.5C 213.459,274.393 225.459,264.893 236.5,254C 238.407,252.878 240.407,252.045 242.5,251.5 Z"/></g>
<g><path style="opacity:0.988" fill="#fcb21e" d="M 255.5,255.5 C 267.184,261.338 278.517,267.672 289.5,274.5C 290.306,275.728 291.306,276.728 292.5,277.5C 291.004,284.819 289.504,292.153 288,299.5C 283.831,305.166 280.165,311.166 277,317.5C 272.297,322.035 267.797,326.702 263.5,331.5C 251.61,341.445 238.277,348.779 223.5,353.5C 220.976,354.8 218.309,354.8 215.5,353.5C 215.624,352.893 215.957,352.56 216.5,352.5C 245.772,326.924 258.772,294.591 255.5,255.5 Z"/></g>
<g><path style="opacity:0.358" fill="#fbdf73" d="M 203.5,241.5 C 211.638,244.284 219.972,246.284 228.5,247.5C 214.143,262.522 198.81,276.522 182.5,289.5C 184.22,286.269 186.553,283.436 189.5,281C 199.983,270.854 210.816,261.021 222,251.5C 222.749,250.365 222.583,249.365 221.5,248.5C 215.153,246.761 209.153,244.427 203.5,241.5 Z"/></g>
<g><path style="opacity:0.981" fill="#fcc94f" d="M 294.5,273.5 C 296.464,286.161 298.631,298.828 301,311.5C 302.502,319.163 302.668,326.829 301.5,334.5C 291.161,334.666 280.828,334.5 270.5,334C 268.146,333.153 265.812,332.32 263.5,331.5C 267.797,326.702 272.297,322.035 277,317.5C 280.165,311.166 283.831,305.166 288,299.5C 289.504,292.153 291.004,284.819 292.5,277.5C 293.167,276.167 293.833,274.833 294.5,273.5 Z"/></g>
<g><path style="opacity:0.987" fill="#fde57d" d="M 293.5,239.5 C 294.29,240.609 294.79,241.942 295,243.5C 295.825,255.825 296.492,268.158 297,280.5C 300.895,299.326 303.395,318.326 304.5,337.5C 302.63,360.304 296.296,381.97 285.5,402.5C 284.675,403.386 283.675,403.719 282.5,403.5C 282.667,392.162 282.5,380.828 282,369.5C 280.513,368.747 280.346,367.914 281.5,367C 280.314,364.252 279.314,361.419 278.5,358.5C 277.914,358.709 277.414,359.043 277,359.5C 274.719,353.245 271.219,347.912 266.5,343.5C 264.75,342.258 263.083,340.758 261.5,339C 259.833,338.333 258.167,338.333 256.5,339C 246.679,346.579 235.679,351.412 223.5,353.5C 238.277,348.779 251.61,341.445 263.5,331.5C 265.812,332.32 268.146,333.153 270.5,334C 280.828,334.5 291.161,334.666 301.5,334.5C 302.668,326.829 302.502,319.163 301,311.5C 298.631,298.828 296.464,286.161 294.5,273.5C 294.826,264.651 294.493,255.984 293.5,247.5C 293.5,244.833 293.5,242.167 293.5,239.5 Z"/></g>
<g><path style="opacity:0.367" fill="#fee163" d="M 304.5,337.5 C 305.264,349.378 304.097,361.044 301,372.5C 297.195,382.248 293.195,391.914 289,401.5C 287.504,404.002 285.337,405.669 282.5,406.5C 281.029,405.619 280.196,404.286 280,402.5C 282.086,381.202 277.586,361.536 266.5,343.5C 271.219,347.912 274.719,353.245 277,359.5C 277.414,359.043 277.914,358.709 278.5,358.5C 279.314,361.419 280.314,364.252 281.5,367C 280.346,367.914 280.513,368.747 282,369.5C 282.5,380.828 282.667,392.162 282.5,403.5C 283.675,403.719 284.675,403.386 285.5,402.5C 296.296,381.97 302.63,360.304 304.5,337.5 Z"/></g>
</svg>
